<svg id="Ebene_1" data-name="Ebene 1" xmlns="http://www.w3.org/2000/svg" xmlns:xlink="http://www.w3.org/1999/xlink" viewBox="0 0 841.89 1190.55"><defs><style>.cls-1{font-size:39px;fill:#1d1d1b;font-family:Roboto-Light, Roboto;}.cls-2{letter-spacing:-0.01em;}.cls-3{font-family:Roboto-MediumItalic, Roboto;font-style:italic;}.cls-4{letter-spacing:-0.03em;}.cls-5{letter-spacing:-0.01em;}.cls-6{letter-spacing:-0.01em;}.cls-7{letter-spacing:0.01em;}.cls-8{letter-spacing:-0.01em;}.cls-15,.cls-9{font-family:Roboto-Medium, Roboto;}.cls-10{letter-spacing:-0.01em;}.cls-11{letter-spacing:-0.04em;}.cls-12{letter-spacing:-0.03em;}.cls-13{letter-spacing:-0.01em;}.cls-14{letter-spacing:-0.14em;}.cls-15{font-size:23px;fill:#166fb5;}.cls-16{letter-spacing:-0.02em;}.cls-17{letter-spacing:-0.01em;}.cls-18{letter-spacing:-0.02em;}</style></defs><title>Poster</title><text class="cls-1" transform="translate(68.89 95.72)"><tspan class="cls-2">Z</tspan><tspan x="22.95" y="0">uck: </tspan><tspan class="cls-3"><tspan x="0" y="46.8">„</tspan><tspan class="cls-4" x="14.53" y="46.8">Y</tspan><tspan x="36.54" y="46.8">eah so if </tspan><tspan class="cls-5" x="192.62" y="46.8">y</tspan><tspan x="210.94" y="46.8">ou </tspan><tspan class="cls-6" x="263.5" y="46.8">ev</tspan><tspan x="302.41" y="46.8">er need info </tspan><tspan x="0" y="93.6">about an</tspan><tspan class="cls-5" x="149.37" y="93.6">y</tspan><tspan x="167.69" y="93.6">one at Ha</tspan><tspan class="cls-7" x="331.54" y="93.6">r</tspan><tspan class="cls-5" x="345.37" y="93.6">v</tspan><tspan x="363.99" y="93.6">a</tspan><tspan class="cls-8" x="384.65" y="93.6">r</tspan><tspan x="397.77" y="93.6">d“</tspan></tspan><tspan class="cls-2" x="0" y="187.2">Z</tspan><tspan x="22.95" y="187.2">uck: </tspan><tspan class="cls-3"><tspan x="0" y="234">„Just ask“</tspan></tspan><tspan class="cls-2" x="0" y="327.6">Z</tspan><tspan x="22.95" y="327.6">uck:</tspan><tspan class="cls-9" x="92.28" y="327.6"> </tspan><tspan class="cls-3"><tspan x="0" y="374.4">„I h</tspan><tspan class="cls-5" x="56.22" y="374.4">a</tspan><tspan class="cls-6" x="76.59" y="374.4">v</tspan><tspan x="95.25" y="374.4">e </tspan><tspan class="cls-5" x="125.36" y="374.4">o</tspan><tspan class="cls-6" x="146.81" y="374.4">v</tspan><tspan x="165.47" y="374.4">er 4,000 emails, </tspan><tspan x="0" y="421.2">pictu</tspan><tspan class="cls-2" x="85.31" y="421.2">r</tspan><tspan x="98.43" y="421.2">es, add</tspan><tspan class="cls-2" x="220.5" y="421.2">r</tspan><tspan x="233.62" y="421.2">esses, SNS“</tspan></tspan><tspan x="0" y="514.8">[Redacted </tspan><tspan class="cls-10" x="182.22" y="514.8">F</tspan><tspan x="204.22" y="514.8">riend</tspan><tspan class="cls-11" x="289.85" y="514.8">&apos;</tspan><tspan x="294.96" y="514.8">s Name]: </tspan><tspan class="cls-3"><tspan x="0" y="561.6">„What? How</tspan><tspan class="cls-12" x="207.93" y="561.6">&apos;</tspan><tspan x="213.4" y="561.6">d </tspan><tspan class="cls-13" x="244.55" y="561.6">y</tspan><tspan x="262.87" y="561.6">ou manage </tspan><tspan x="0" y="608.4">that one?“</tspan></tspan><tspan class="cls-2" x="0" y="702">Z</tspan><tspan x="22.95" y="702">uck: </tspan><tspan class="cls-3"><tspan x="0" y="748.8">„</tspan><tspan class="cls-6" x="14.53" y="748.8">P</tspan><tspan x="38.66" y="748.8">eople just submitted it</tspan><tspan class="cls-14" x="420.49" y="748.8">.</tspan><tspan x="425.82" y="748.8">“</tspan></tspan></text><image width="1000" height="1000" transform="translate(699.3 1065.74) scale(0.08)" xlink:href="../../1000px-F_icon.svg.png"/><text class="cls-15" transform="translate(63.4 1133.75)">Mache <tspan class="cls-16" x="75.46" y="0">F</tspan><tspan x="87.71" y="0">acebook zu unse</tspan><tspan class="cls-17" x="261.27" y="0">r</tspan><tspan x="269.14" y="0">em </tspan><tspan class="cls-18" x="307.22" y="0">F</tspan><tspan x="319.47" y="0">acebook.</tspan></text></svg>