<svg id="Ebene_1" data-name="Ebene 1" xmlns="http://www.w3.org/2000/svg" viewBox="0 0 841.89 1190.55"><defs><style>.cls-1{font-size:68px;}.cls-1,.cls-12,.cls-13{fill:#1d1d1b;}.cls-1,.cls-12,.cls-6{font-family:Cardo-Regular, Cardo;}.cls-2,.cls-4{font-family:Cardo-Bold, Cardo;}.cls-2,.cls-5{font-weight:700;}.cls-3{letter-spacing:-0.02em;}.cls-7{letter-spacing:-0.02em;}.cls-8{letter-spacing:-0.05em;}.cls-9{letter-spacing:-0.04em;}.cls-10{letter-spacing:-0.03em;}.cls-11{letter-spacing:-0.05em;}.cls-12,.cls-13{font-size:26px;}.cls-13{font-family:Roboto-Black, Roboto;}.cls-14{letter-spacing:-0.01em;}.cls-15{letter-spacing:-0.01em;}</style></defs><title>Poster</title><text class="cls-1" transform="translate(550.31 128.26)">„I think<tspan class="cls-2"><tspan x="-25.57" y="95.2" xml:space="preserve"> Go</tspan><tspan class="cls-3" x="87.76" y="95.2">o</tspan><tspan x="126.4" y="95.2">gle</tspan></tspan><tspan class="cls-4"><tspan class="cls-5" x="-192.94" y="190.4"> </tspan><tspan class="cls-6" x="-174.68" y="190.4">should be like</tspan></tspan><tspan x="220.54" y="238"> </tspan><tspan x="-178.3" y="285.6">a</tspan><tspan class="cls-2" x="-148.92" y="285.6"> </tspan><tspan x="-130.65" y="285.6">Swiss</tspan><tspan class="cls-2" x="22.54" y="285.6" xml:space="preserve"> Army</tspan><tspan class="cls-4"><tspan class="cls-5" x="-162.43" y="380.8" xml:space="preserve"> knife</tspan><tspan class="cls-6" x="20.52" y="380.8">:</tspan><tspan class="cls-5" x="37.79" y="380.8"> </tspan><tspan class="cls-6" x="56.05" y="380.8">clean,</tspan></tspan><tspan x="-106.68" y="476" xml:space="preserve"> simple, the</tspan><tspan x="-200.58" y="571.2" xml:space="preserve"> tool you want</tspan><tspan x="220.54" y="618.8"> </tspan><tspan x="25.9" y="666.4">to take</tspan><tspan class="cls-2"><tspan x="-199.25" y="746.6"> </tspan><tspan class="cls-7" x="-180.99" y="746.6">e</tspan><tspan class="cls-8" x="-148.95" y="746.6">v</tspan><tspan class="cls-9" x="-114.52" y="746.6">e</tspan><tspan x="-83.64" y="746.6">rywh</tspan><tspan class="cls-9" x="81.95" y="746.6">e</tspan><tspan class="cls-10" x="112.82" y="746.6">r</tspan><tspan class="cls-11" x="138.42" y="746.6">e</tspan><tspan x="168.54" y="746.6">.</tspan><tspan x="188.26" y="746.6">“</tspan></tspan></text><text class="cls-12" transform="translate(602.47 977.48)">Marissa Mayer</text><text class="cls-13" transform="translate(612.49 1123.19)">#<tspan class="cls-14" x="15.11" y="0">F</tspan><tspan x="29.05" y="0">uckpri</tspan><tspan class="cls-15" x="103.07" y="0">v</tspan><tspan x="116.31" y="0">acy</tspan></text></svg>