<svg id="Ebene_1" data-name="Ebene 1" xmlns="http://www.w3.org/2000/svg" viewBox="0 0 841.89 1190.55"><defs><style>.cls-1,.cls-14,.cls-15,.cls-2,.cls-3,.cls-9{fill:#1d1d1b;}.cls-2,.cls-3{font-size:26px;}.cls-11,.cls-14,.cls-2,.cls-6{font-family:Cardo-Regular, Cardo;}.cls-3{font-family:Roboto-Black, Roboto;}.cls-4{letter-spacing:-0.01em;}.cls-5{letter-spacing:-0.01em;}.cls-6{font-size:68px;}.cls-13,.cls-7{fill:#fff;}.cls-12,.cls-13,.cls-7,.cls-9{font-family:Cardo-Bold, Cardo;}.cls-10,.cls-12,.cls-15,.cls-7{font-weight:700;}.cls-8{letter-spacing:-0.02em;}.cls-16{letter-spacing:-0.02em;}.cls-17{letter-spacing:-0.05em;}.cls-18{letter-spacing:-0.04em;}.cls-19{letter-spacing:-0.03em;}.cls-20{letter-spacing:-0.05em;}</style></defs><title>Poster</title><rect class="cls-1" x="574.76" y="358.56" width="185.43" height="69.36"/><rect class="cls-1" x="528.83" y="168.3" width="233.85" height="69.36"/><text class="cls-2" transform="translate(594.31 977.48)">Marissa Mayer</text><text class="cls-3" transform="translate(604.33 1123.19)">#<tspan class="cls-4" x="15.11" y="0">F</tspan><tspan x="29.05" y="0">uckpri</tspan><tspan class="cls-5" x="103.07" y="0">v</tspan><tspan x="116.31" y="0">acy</tspan></text><rect class="cls-1" x="390.35" y="452.65" width="172.58" height="69.36"/><rect class="cls-1" x="356.08" y="820.81" width="356.47" height="69.36"/><text class="cls-6" transform="translate(541.14 128.26)"><tspan class="cls-1">„I think</tspan><tspan class="cls-7"><tspan x="-25.57" y="95.2" xml:space="preserve"> Go</tspan><tspan class="cls-8" x="87.76" y="95.2">o</tspan><tspan x="126.4" y="95.2">gle</tspan></tspan><tspan class="cls-9"><tspan class="cls-10" x="-192.94" y="190.4"> </tspan><tspan class="cls-11" x="-174.68" y="190.4">should be like</tspan></tspan><tspan class="cls-1"><tspan x="220.54" y="238"> </tspan></tspan><tspan x="-178.3" y="285.6">a</tspan><tspan class="cls-12" x="-148.92" y="285.6"> </tspan><tspan x="-130.65" y="285.6">Swiss</tspan><tspan class="cls-7" x="22.54" y="285.6" xml:space="preserve"> Army</tspan><tspan class="cls-13"><tspan class="cls-10" x="-162.43" y="380.8" xml:space="preserve"> knife</tspan><tspan class="cls-14" x="20.52" y="380.8">:</tspan><tspan class="cls-15" x="37.79" y="380.8"> </tspan><tspan class="cls-14" x="56.05" y="380.8">clean,</tspan></tspan><tspan class="cls-1"><tspan x="-106.68" y="476" xml:space="preserve"> simple, the</tspan><tspan x="-200.58" y="571.2" xml:space="preserve"> tool you want</tspan><tspan x="220.54" y="618.8"> </tspan><tspan x="25.9" y="666.4">to take</tspan></tspan><tspan class="cls-7"><tspan x="-199.25" y="746.6"> </tspan><tspan class="cls-16" x="-180.99" y="746.6">e</tspan><tspan class="cls-17" x="-148.95" y="746.6">v</tspan><tspan class="cls-18" x="-114.52" y="746.6">e</tspan><tspan x="-83.64" y="746.6">rywh</tspan><tspan class="cls-18" x="81.95" y="746.6">e</tspan><tspan class="cls-19" x="112.82" y="746.6">r</tspan><tspan class="cls-20" x="138.42" y="746.6">e</tspan><tspan class="cls-1" x="168.54" y="746.6">.</tspan><tspan class="cls-1" x="188.26" y="746.6">“</tspan></tspan></text></svg>