<svg id="Ebene_1" data-name="Ebene 1" xmlns="http://www.w3.org/2000/svg" viewBox="0 0 841.89 1190.55"><defs><style>.cls-1{font-size:68px;}.cls-1,.cls-18,.cls-9{font-family:Cardo-Regular, Cardo;}.cls-10,.cls-18,.cls-19,.cls-2,.cls-7{fill:#1d1d1b;}.cls-3{fill:#517bbd;}.cls-10,.cls-3,.cls-4,.cls-5,.cls-6,.cls-7{font-family:Cardo-Bold, Cardo;}.cls-10,.cls-11,.cls-3,.cls-4,.cls-5,.cls-6,.cls-8{font-weight:700;}.cls-11,.cls-12,.cls-13,.cls-14,.cls-15,.cls-16,.cls-17,.cls-4{fill:#dc4437;}.cls-5{fill:#f4b401;letter-spacing:-0.02em;}.cls-6{fill:#079d57;}.cls-12{letter-spacing:-0.02em;}.cls-13{letter-spacing:-0.05em;}.cls-14{letter-spacing:-0.04em;}.cls-16{letter-spacing:-0.03em;}.cls-17{letter-spacing:-0.05em;}.cls-18,.cls-19{font-size:26px;}.cls-19{font-family:Roboto-Black, Roboto;}.cls-20{letter-spacing:-0.01em;}.cls-21{letter-spacing:-0.01em;}</style></defs><title>Poster</title><text class="cls-1" transform="translate(557.64 128.26)"><tspan class="cls-2">„I think<tspan x="-25.57" y="95.2"> </tspan><tspan class="cls-3" x="-7.3" y="95.2">G</tspan><tspan class="cls-4" x="48.01" y="95.2">o</tspan><tspan class="cls-5" x="87.76" y="95.2">o</tspan><tspan class="cls-3" x="126.4" y="95.2">g</tspan><tspan class="cls-6" x="167.04" y="95.2">l</tspan><tspan class="cls-4" x="186.87" y="95.2">e</tspan></tspan><tspan class="cls-7"><tspan class="cls-8" x="-192.94" y="190.4"> </tspan><tspan class="cls-9" x="-174.68" y="190.4">should be like</tspan></tspan><tspan class="cls-2"><tspan x="220.54" y="238"> </tspan></tspan><tspan class="cls-2" x="-178.3" y="285.6">a</tspan><tspan class="cls-10" x="-148.92" y="285.6"> </tspan><tspan x="-130.65" y="285.6">Swiss</tspan><tspan class="cls-4" x="22.54" y="285.6" xml:space="preserve"> Army</tspan><tspan class="cls-7"><tspan class="cls-8" x="-162.43" y="380.8"> </tspan><tspan class="cls-11" x="-144.17" y="380.8">knife</tspan><tspan class="cls-9" x="20.52" y="380.8">:</tspan><tspan class="cls-8" x="37.79" y="380.8"> </tspan><tspan class="cls-9" x="56.05" y="380.8">clean,</tspan></tspan><tspan class="cls-2"><tspan x="-106.68" y="476" xml:space="preserve"> simple, the</tspan><tspan x="-200.58" y="571.2" xml:space="preserve"> tool you want</tspan><tspan x="220.54" y="618.8"> </tspan><tspan x="25.9" y="666.4">to take</tspan></tspan><tspan class="cls-10"><tspan x="-199.25" y="746.6"> </tspan><tspan class="cls-12" x="-180.99" y="746.6">e</tspan><tspan class="cls-13" x="-148.95" y="746.6">v</tspan><tspan class="cls-14" x="-114.52" y="746.6">e</tspan><tspan class="cls-15" x="-83.64" y="746.6">rywh</tspan><tspan class="cls-14" x="81.95" y="746.6">e</tspan><tspan class="cls-16" x="112.82" y="746.6">r</tspan><tspan class="cls-17" x="138.42" y="746.6">e</tspan><tspan x="168.54" y="746.6">.“</tspan></tspan></text><text class="cls-18" transform="translate(609.81 977.48)">Marissa Mayer</text><text class="cls-19" transform="translate(619.83 1123.19)">#<tspan class="cls-20" x="15.11" y="0">F</tspan><tspan x="29.05" y="0">uckpri</tspan><tspan class="cls-21" x="103.07" y="0">v</tspan><tspan x="116.31" y="0">acy</tspan></text></svg>